<svg width="37" height="37" viewBox="0 0 37 37" fill="none" xmlns="http://www.w3.org/2000/svg">
<path d="M10.2778 0C4.60239 0 0 4.60239 0 10.2778V26.7222C0 32.3976 4.60239 37 10.2778 37H26.7222C32.3976 37 37 32.3976 37 26.7222V10.2778C37 4.60239 32.3976 0 26.7222 0H10.2778ZM30.8333 4.11111C31.968 4.11111 32.8889 5.032 32.8889 6.16667C32.8889 7.30133 31.968 8.22222 30.8333 8.22222C29.6987 8.22222 28.7778 7.30133 28.7778 6.16667C28.7778 5.032 29.6987 4.11111 30.8333 4.11111ZM18.5 8.22222C24.1754 8.22222 28.7778 12.8246 28.7778 18.5C28.7778 24.1754 24.1754 28.7778 18.5 28.7778C12.8246 28.7778 8.22222 24.1754 8.22222 18.5C8.22222 12.8246 12.8246 8.22222 18.5 8.22222ZM18.5 12.3333C16.8645 12.3333 15.296 12.983 14.1395 14.1395C12.983 15.296 12.3333 16.8645 12.3333 18.5C12.3333 20.1355 12.983 21.704 14.1395 22.8605C15.296 24.017 16.8645 24.6667 18.5 24.6667C20.1355 24.6667 21.704 24.017 22.8605 22.8605C24.017 21.704 24.6667 20.1355 24.6667 18.5C24.6667 16.8645 24.017 15.296 22.8605 14.1395C21.704 12.983 20.1355 12.3333 18.5 12.3333Z" fill="#5200FF"/>
</svg>
