<svg width="161" height="34" viewBox="0 0 161 34" fill="none" xmlns="http://www.w3.org/2000/svg">
<path d="M0.32 33V0.719997H9.26V9.84L8 7.2C8.96 4.92 10.5 3.2 12.62 2.04C14.74 0.839999 17.32 0.24 20.36 0.24V8.88C19.96 8.84 19.6 8.82 19.28 8.82C18.96 8.78 18.62 8.76 18.26 8.76C15.7 8.76 13.62 9.5 12.02 10.98C10.46 12.42 9.68 14.68 9.68 17.76V33H0.32ZM41.7111 33.48C38.0311 33.48 34.7911 32.76 31.9911 31.32C29.2311 29.88 27.0911 27.92 25.5711 25.44C24.0511 22.92 23.2911 20.06 23.2911 16.86C23.2911 13.62 24.0311 10.76 25.5111 8.28C27.0311 5.76 29.0911 3.8 31.6911 2.4C34.2911 0.959999 37.2311 0.24 40.5111 0.24C43.6711 0.24 46.5111 0.919999 49.0311 2.28C51.5911 3.6 53.6111 5.52 55.0911 8.04C56.5711 10.52 57.3111 13.5 57.3111 16.98C57.3111 17.34 57.2911 17.76 57.2511 18.24C57.2111 18.68 57.1711 19.1 57.1311 19.5H30.9111V14.04H52.2111L48.6111 15.66C48.6111 13.98 48.2711 12.52 47.5911 11.28C46.9111 10.04 45.9711 9.08 44.7711 8.4C43.5711 7.68 42.1711 7.32 40.5711 7.32C38.9711 7.32 37.5511 7.68 36.3111 8.4C35.1111 9.08 34.1711 10.06 33.4911 11.34C32.8111 12.58 32.4711 14.06 32.4711 15.78V17.22C32.4711 18.98 32.8511 20.54 33.6111 21.9C34.4111 23.22 35.5111 24.24 36.9111 24.96C38.3511 25.64 40.0311 25.98 41.9511 25.98C43.6711 25.98 45.1711 25.72 46.4511 25.2C47.7711 24.68 48.9711 23.9 50.0511 22.86L55.0311 28.26C53.5511 29.94 51.6911 31.24 49.4511 32.16C47.2111 33.04 44.6311 33.48 41.7111 33.48ZM79.1427 33.48C75.6627 33.48 72.5627 32.78 69.8427 31.38C67.1227 29.94 64.9827 27.96 63.4227 25.44C61.9027 22.92 61.1427 20.06 61.1427 16.86C61.1427 13.62 61.9027 10.76 63.4227 8.28C64.9827 5.76 67.1227 3.8 69.8427 2.4C72.5627 0.959999 75.6627 0.24 79.1427 0.24C82.5427 0.24 85.5027 0.959999 88.0227 2.4C90.5427 3.8 92.4027 5.82 93.6027 8.46L86.3427 12.36C85.5027 10.84 84.4427 9.72 83.1627 9C81.9227 8.28 80.5627 7.92 79.0827 7.92C77.4827 7.92 76.0427 8.28 74.7627 9C73.4827 9.72 72.4627 10.74 71.7027 12.06C70.9827 13.38 70.6227 14.98 70.6227 16.86C70.6227 18.74 70.9827 20.34 71.7027 21.66C72.4627 22.98 73.4827 24 74.7627 24.72C76.0427 25.44 77.4827 25.8 79.0827 25.8C80.5627 25.8 81.9227 25.46 83.1627 24.78C84.4427 24.06 85.5027 22.92 86.3427 21.36L93.6027 25.32C92.4027 27.92 90.5427 29.94 88.0227 31.38C85.5027 32.78 82.5427 33.48 79.1427 33.48ZM114.182 33.48C110.702 33.48 107.602 32.78 104.882 31.38C102.162 29.94 100.022 27.96 98.4617 25.44C96.9417 22.92 96.1817 20.06 96.1817 16.86C96.1817 13.62 96.9417 10.76 98.4617 8.28C100.022 5.76 102.162 3.8 104.882 2.4C107.602 0.959999 110.702 0.24 114.182 0.24C117.582 0.24 120.542 0.959999 123.062 2.4C125.582 3.8 127.442 5.82 128.642 8.46L121.382 12.36C120.542 10.84 119.482 9.72 118.202 9C116.962 8.28 115.602 7.92 114.122 7.92C112.522 7.92 111.082 8.28 109.802 9C108.522 9.72 107.502 10.74 106.742 12.06C106.022 13.38 105.662 14.98 105.662 16.86C105.662 18.74 106.022 20.34 106.742 21.66C107.502 22.98 108.522 24 109.802 24.72C111.082 25.44 112.522 25.8 114.122 25.8C115.602 25.8 116.962 25.46 118.202 24.78C119.482 24.06 120.542 22.92 121.382 21.36L128.642 25.32C127.442 27.92 125.582 29.94 123.062 31.38C120.542 32.78 117.582 33.48 114.182 33.48ZM144.891 33.48C142.131 33.48 139.471 33.16 136.911 32.52C134.391 31.84 132.391 31 130.911 30L134.031 23.28C135.511 24.2 137.251 24.96 139.251 25.56C141.291 26.12 143.291 26.4 145.251 26.4C147.411 26.4 148.931 26.14 149.811 25.62C150.731 25.1 151.191 24.38 151.191 23.46C151.191 22.7 150.831 22.14 150.111 21.78C149.431 21.38 148.511 21.08 147.351 20.88C146.191 20.68 144.911 20.48 143.511 20.28C142.151 20.08 140.771 19.82 139.371 19.5C137.971 19.14 136.691 18.62 135.531 17.94C134.371 17.26 133.431 16.34 132.711 15.18C132.031 14.02 131.691 12.52 131.691 10.68C131.691 8.64 132.271 6.84 133.431 5.28C134.631 3.72 136.351 2.5 138.591 1.62C140.831 0.7 143.511 0.24 146.631 0.24C148.831 0.24 151.071 0.479999 153.351 0.959998C155.631 1.44 157.531 2.14 159.051 3.06L155.931 9.72C154.371 8.8 152.791 8.18 151.191 7.86C149.631 7.5 148.111 7.32 146.631 7.32C144.551 7.32 143.031 7.6 142.071 8.16C141.111 8.72 140.631 9.44 140.631 10.32C140.631 11.12 140.971 11.72 141.651 12.12C142.371 12.52 143.311 12.84 144.471 13.08C145.631 13.32 146.891 13.54 148.251 13.74C149.651 13.9 151.051 14.16 152.451 14.52C153.851 14.88 155.111 15.4 156.231 16.08C157.391 16.72 158.331 17.62 159.051 18.78C159.771 19.9 160.131 21.38 160.131 23.22C160.131 25.22 159.531 27 158.331 28.56C157.131 30.08 155.391 31.28 153.111 32.16C150.871 33.04 148.131 33.48 144.891 33.48Z" fill="#5200FF"/>
</svg>
