<svg width="15" height="18" viewBox="0 0 15 18" fill="none" xmlns="http://www.w3.org/2000/svg">
<path fill-rule="evenodd" clip-rule="evenodd" d="M0.658983 14.7859C0.415892 14.7859 0.192564 14.9164 0.0779357 15.1253C-0.0366927 15.3342 -0.0241763 15.5881 0.110874 15.7855L1.42844 17.7141C1.55032 17.8928 1.75652 18.0002 1.97655 18.0002H12.5171C12.7371 18.0002 12.9433 17.8928 13.0652 17.7141L14.3828 15.7855C14.5178 15.5881 14.5303 15.3342 14.4157 15.1253C14.3011 14.9164 14.0777 14.7859 13.8347 14.7859H0.658983ZM0.16687 6.70383C0.16687 6.70512 0.167531 6.70705 0.167531 6.70705C0.631974 8.92427 1.354 11.0373 2.329 13.0469C2.329 13.0482 2.32966 13.0495 2.33032 13.0508C2.65971 13.7187 3.35209 14.143 4.11233 14.143C5.38641 14.143 7.8305 14.143 9.08944 14.1411C9.82925 14.1411 10.5071 13.7367 10.8458 13.0938L10.8471 13.0913C11.8959 11.0708 12.6568 8.93777 13.0514 6.6614C13.0514 6.66012 13.0514 6.65884 13.052 6.65691C13.1146 6.27826 13.0006 5.8919 12.7417 5.6039C12.4822 5.31526 12.1047 5.15519 11.7114 5.16676C8.30746 5.26062 4.90155 5.2619 1.4963 5.16869C1.09576 5.15712 0.711686 5.32426 0.452784 5.62319C0.193882 5.92212 0.0884751 6.32005 0.16687 6.70383ZM13.6094 7.25926C13.2767 8.94484 12.749 10.5533 12.0559 12.0981C13.0415 11.8473 13.9104 11.2251 14.4348 10.5173C14.9513 9.81977 15.1259 9.04255 14.9085 8.41962C14.7438 7.94648 14.3485 7.50355 13.6094 7.25926ZM8.65793 0.972745C8.84305 1.27489 8.8055 1.53203 8.71986 1.76346C8.62697 2.01546 8.49192 2.24882 8.39772 2.47382C8.24027 2.84668 8.17702 3.20861 8.27716 3.56925C8.34567 3.81804 8.49192 4.07582 8.77849 4.33168C9.04662 4.57083 9.46363 4.55283 9.70935 4.29119C9.95442 4.02954 9.93597 3.62261 9.66785 3.38282C9.60658 3.32818 9.56113 3.28382 9.54795 3.23111C9.52226 3.12504 9.58748 3.02604 9.63689 2.91547C9.71594 2.73611 9.8141 2.55161 9.89711 2.35682C10.1481 1.76475 10.2746 1.10582 9.78841 0.313171C9.60197 0.0084555 9.19748 -0.0911884 8.88521 0.0913835C8.57295 0.273313 8.47084 0.66803 8.65793 0.972745ZM3.38766 0.972745C3.57278 1.27489 3.53523 1.53203 3.44959 1.76346C3.3567 2.01546 3.22165 2.24882 3.12745 2.47382C2.97 2.84668 2.90675 3.20861 3.00689 3.56925C3.0754 3.81804 3.22165 4.07582 3.50822 4.33168C3.77635 4.57083 4.19336 4.55283 4.43908 4.29119C4.68415 4.02954 4.6657 3.62261 4.39758 3.38282C4.33631 3.32818 4.29086 3.28382 4.27768 3.23111C4.25199 3.12504 4.31721 3.02604 4.36662 2.91547C4.44567 2.73611 4.54383 2.55161 4.62684 2.35682C4.87783 1.76475 5.00432 1.10582 4.51814 0.313171C4.3317 0.0084555 3.92721 -0.0911884 3.61494 0.0913835C3.30268 0.273313 3.20057 0.66803 3.38766 0.972745Z" fill="white"/>
</svg>
