<svg width="37" height="37" viewBox="0 0 37 37" fill="none" xmlns="http://www.w3.org/2000/svg">
<path d="M6.16667 0C2.78534 0 0 2.78534 0 6.16667V30.8333C0 34.2147 2.78534 37 6.16667 37H30.8333C34.2147 37 37 34.2147 37 30.8333V6.16667C37 2.78534 34.2147 0 30.8333 0H6.16667ZM18.5 8.22222H22.6111C22.6111 10.2881 25.6348 12.3333 26.7222 12.3333V16.4444C25.4786 16.4444 23.9842 15.898 22.6111 14.975V22.6111C22.6111 26.011 19.8443 28.7778 16.4444 28.7778C13.0446 28.7778 10.2778 26.011 10.2778 22.6111C10.2778 19.2112 13.0446 16.4444 16.4444 16.4444V20.5556C15.3098 20.5556 14.3889 21.4785 14.3889 22.6111C14.3889 23.7437 15.3098 24.6667 16.4444 24.6667C17.5791 24.6667 18.5 23.7437 18.5 22.6111V8.22222Z" fill="#5200FF"/>
</svg>
